# xmcd
#
# Track frame offsets: 
#        150
#        17007
#        27009
#        41076
#        51709
#        64667
#        74086
#        91282
#        100274
#        110561
#        124212
#        131559
#
# Disc length: 2011 seconds
#
# Revision: 0
# Processed by: cddbd v1.5.2PL0 Copyright (c) Steve Scherf et al.
# Submitted via: ExactAudioCopy v0.99pb4
#
DISCID=af07d90c
DTITLE=Bullfrog Brown - Twelve Live Warthogs
DYEAR=2008
DGENRE=Blues
TTITLE0=Build Me A Statue
TTITLE1=Feed The Habit
TTITLE2=I'll See You, Mr.Blues
TTITLE3=Two Left Feet
TTITLE4=Snakes Were Gettin'
TTITLE5=Special Rider
TTITLE6=Phantom Menace
TTITLE7=Whiskers
TTITLE8=The Windows Are Shakin'
TTITLE9=Somebody Turn On The Heat
TTITLE10=Lonesome Cowboy
TTITLE11=Papa Wolf
EXTD=
EXTT0=
EXTT1=
EXTT2=
EXTT3=
EXTT4=
EXTT5=
EXTT6=
EXTT7=
EXTT8=
EXTT9=
EXTT10=
EXTT11=
PLAYORDER=
